<svg width="33" height="40" viewBox="0 0 33 40" fill="none" xmlns="http://www.w3.org/2000/svg">
<path d="M27.07 14.7053C27.6747 14.2389 28.4256 13.9854 29.2001 13.9895H29.2589C31.2087 13.9895 32.7993 15.6014 32.8039 17.5987L32.805 18.0576L27.07 14.7053ZM27.07 14.7053C26.5168 13.4403 25.2774 12.5457 23.8326 12.5457L23.8316 12.5457C22.9717 12.5516 22.1468 12.8704 21.5179 13.437C20.9012 12.3712 19.7678 11.6589 18.4722 11.6589H18.4103C17.7761 11.6496 17.1549 11.8223 16.623 12.1524V4.48483C16.623 2.48332 15.0216 0.85 13.0661 0.85C11.1123 0.85 9.51937 2.48269 9.51825 4.48232C9.51825 4.48234 9.51825 4.48237 9.51825 4.48239L9.50307 19.8504L8.85099 19.0796C8.85081 19.0794 8.85062 19.0792 8.85044 19.0789C8.01942 18.0723 6.79732 17.4482 5.47631 17.354L5.47561 17.354C4.1823 17.2678 2.90927 17.705 1.95752 18.5643L1.16262 19.2053L1.16258 19.2054C0.849976 19.4576 0.759195 19.89 0.947788 20.2431L0.94781 20.2432L8.70833 34.7621L8.70834 34.7622C10.1524 37.4624 12.9019 39.15 15.8864 39.15H24.6322H24.7822V39.1412C29.2355 39.0579 32.8119 35.2729 32.8164 30.649C32.8174 29.5105 32.8154 28.5375 32.8136 27.6843C32.8122 26.9902 32.8109 26.3754 32.8116 25.8152L27.07 14.7053ZM31.0822 25.8101V25.81L31.0822 25.7599C31.0867 22.4747 31.0884 21.2432 31.0797 17.6011C31.0772 16.5196 30.2531 15.6706 29.2589 15.6706H29.1996C28.1988 15.6706 27.3542 16.508 27.3542 17.5889V19.2627C27.3542 19.7307 26.9655 20.1033 26.4947 20.1033C26.0238 20.1033 25.6352 19.7307 25.6352 19.2627V16.1717C25.6352 15.0823 24.8298 14.2177 23.8371 14.2177C22.838 14.2177 22.0329 15.0829 22.0329 16.1717V19.4482C22.0329 19.9162 21.6442 20.2888 21.1734 20.2888C20.7026 20.2888 20.3139 19.9162 20.3139 19.4482V15.2721C20.3139 14.1898 19.4714 13.34 18.4722 13.34H18.4092C17.4363 13.34 16.623 14.1442 16.623 15.1824V19.8838C16.623 20.3518 16.2343 20.7244 15.7634 20.7244C15.2926 20.7244 14.9039 20.3518 14.9039 19.8838V15.32C14.9039 15.3181 14.9039 15.3159 14.9037 15.3126C14.9036 15.3103 14.9035 15.3075 14.9033 15.3038L14.9032 15.3029C14.9028 15.2953 14.9022 15.2837 14.9022 15.2715C14.9022 15.2507 14.9027 15.2303 14.9031 15.212L14.9031 15.2116C14.9036 15.1926 14.9039 15.1757 14.9039 15.1592V4.48483C14.9039 3.40001 14.0628 2.53078 13.0668 2.53078C12.0706 2.53078 11.2296 3.39913 11.2289 4.48323V4.48325L11.2161 22.1868L31.0822 25.8101ZM31.0822 25.8101C31.0817 26.2425 31.0811 26.7109 31.0805 27.2244M31.0822 25.8101L31.0805 27.2244M3.09866 19.8222L3.09861 19.8222L3.08748 19.8321C3.08269 19.8364 3.07557 19.8428 3.06743 19.8493M3.09866 19.8222L3.06657 19.85C3.06686 19.8497 3.06715 19.8495 3.06743 19.8493M3.09866 19.8222L3.10206 19.8191M3.09866 19.8222L3.10206 19.8191M3.06743 19.8493C2.9088 19.9785 2.86389 20.202 2.96038 20.3825M3.06743 19.8493L2.96038 20.3825M3.10206 19.8191C3.70776 19.2642 4.52364 18.9785 5.35519 19.0314C6.20603 19.095 6.98997 19.4999 7.52074 20.1475L7.52072 20.1475M3.10206 19.8191L7.52072 20.1475M7.52072 20.1475L7.52214 20.1492M7.52072 20.1475L7.52214 20.1492M7.52214 20.1492L9.69379 22.7211L7.52214 20.1492ZM31.0805 27.2244C31.0793 28.1871 31.078 29.3086 31.0766 30.6504M31.0805 27.2244L31.0766 30.6504M31.0766 30.6504C31.0729 34.413 28.1561 37.4685 24.5906 37.4685M31.0766 30.6504L24.5906 37.4685M24.5906 37.4685H15.8868M24.5906 37.4685H15.8868M15.8868 37.4685C13.5491 37.4685 11.3809 36.131 10.2322 33.9827M15.8868 37.4685L10.2322 33.9827M10.2322 33.9827L2.96038 20.3825M10.2322 33.9827L2.96038 20.3825M10.645 22.9783C10.3055 23.0964 9.92468 22.9953 9.69395 22.7213L10.645 22.9783ZM10.645 22.9783C10.9852 22.8599 11.2161 22.5442 11.2161 22.1869L10.645 22.9783Z" fill="#333333" stroke="#666666" stroke-width="0.3"/>
</svg>
